<svg width="21" height="16" viewBox="0 0 21 16" fill="none" xmlns="http://www.w3.org/2000/svg">
<path d="M12.6881 15.8937C12.5524 15.9669 12.4045 16 12.259 16C11.9342 16 11.6227 15.8311 11.4578 15.5347C11.2203 15.1036 11.3839 14.5663 11.8263 14.3348C14.1065 13.1362 17.5364 10.784 18.451 8.8855H1.40906C0.907259 8.8855 0.5 8.48869 0.5 7.99977C0.5 7.51085 0.907259 7.11404 1.40906 7.11404H18.449C17.5315 5.2137 14.1049 2.86309 11.8263 1.66424C11.3839 1.43159 11.2203 0.895433 11.4578 0.46438C11.6966 0.0345077 12.2506 -0.124923 12.6881 0.105366C13.4893 0.52461 20.5 4.31434 20.5 8.00249C20.5 11.6859 13.4893 15.4745 12.6881 15.8937Z" fill="white"/>
</svg>
