<svg width="45" height="35" viewBox="0 0 45 35" fill="none" xmlns="http://www.w3.org/2000/svg">
<g clip-path="url(#clip0_4_127)">
<path d="M22.5 0.898987C13.6456 0.898987 6.46826 8.34265 6.46826 17.5245C6.46826 26.7063 13.6456 34.1492 22.5 34.1492C31.3536 34.1492 38.5317 26.7056 38.5317 17.5237C38.5314 8.3422 31.3539 0.898987 22.5 0.898987ZM32.3453 14.2313L20.4405 26.577C20.3464 26.6743 20.2191 26.7291 20.0865 26.7291C19.9528 26.7291 19.8253 26.6743 19.7318 26.5761L12.6533 19.2146C12.5592 19.1173 12.507 18.985 12.507 18.8475C12.507 18.7097 12.5598 18.5778 12.6542 18.4805L15.1236 15.9269C15.2171 15.8299 15.3441 15.7755 15.4769 15.7755C15.6092 15.7755 15.7376 15.8308 15.8317 15.9281L20.0916 20.3576L29.1717 10.9404C29.3669 10.7377 29.6841 10.7377 29.8799 10.9404L32.3453 13.4975C32.4388 13.5948 32.4925 13.7268 32.4925 13.8646C32.4922 14.0021 32.4388 14.134 32.3453 14.2313Z" fill="#DCD9D7"/>
</g>
<defs>
<clipPath id="clip0_4_127">
<rect width="45" height="34.0909" fill="white" transform="translate(0 0.649475)"/>
</clipPath>
</defs>
</svg>
