<svg width="15" height="15" viewBox="0 0 15 15" fill="none" xmlns="http://www.w3.org/2000/svg">
<path d="M9.23077 1.875H10.3846V2.8125H9.23077V1.875ZM11.5385 1.875H12.6923V2.8125H11.5385V1.875ZM9.23077 3.75H10.3846V4.6875H9.23077V3.75ZM11.5385 3.75H12.6923V4.6875H11.5385V3.75ZM9.23077 5.625H10.3846V6.5625H9.23077V5.625ZM11.5385 5.625H12.6923V6.5625H11.5385V5.625ZM9.23077 7.5H10.3846V8.4375H9.23077V7.5ZM11.5385 7.5H12.6923V8.4375H11.5385V7.5ZM9.23077 9.375H10.3846V10.3125H9.23077V9.375ZM11.5385 9.375H12.6923V10.3125H11.5385V9.375ZM13.8462 0H8.07692C7.7709 0 7.47742 0.098772 7.26103 0.274587C7.04464 0.450403 6.92308 0.68886 6.92308 0.9375V3.75H1.15385C0.847827 3.75 0.554342 3.84877 0.337954 4.02459C0.121566 4.2004 0 4.43886 0 4.6875V14.0625C0 14.3111 0.121566 14.5496 0.337954 14.7254C0.554342 14.9012 0.847827 15 1.15385 15H13.8462C14.1522 15 14.4457 14.9012 14.662 14.7254C14.8784 14.5496 15 14.3111 15 14.0625V0.9375C15 0.68886 14.8784 0.450403 14.662 0.274587C14.4457 0.098772 14.1522 0 13.8462 0ZM4.61538 14.0625H3.46154V12.1875H4.61538V14.0625ZM5.76923 14.0625V11.25H2.30769V14.0625H1.15385V4.6875H6.92308V14.0625H5.76923ZM11.5385 14.0625H10.3846V12.1875H11.5385V14.0625ZM13.8462 14.0625H12.6923V11.25H9.23077V14.0625H8.07692V0.9375H13.8462V14.0625ZM2.30769 5.625H3.46154V6.5625H2.30769V5.625ZM4.61538 5.625H5.76923V6.5625H4.61538V5.625ZM2.30769 7.5H3.46154V8.4375H2.30769V7.5ZM4.61538 7.5H5.76923V8.4375H4.61538V7.5ZM2.30769 9.375H3.46154V10.3125H2.30769V9.375ZM4.61538 9.375H5.76923V10.3125H4.61538V9.375Z" fill="#8C8C8C"/>
</svg>
