<svg width="14" height="10" viewBox="0 0 14 10" fill="none" xmlns="http://www.w3.org/2000/svg">
<path d="M8.61539 1.25H9.69231V1.875H8.61539V1.25ZM10.7692 1.25H11.8462V1.875H10.7692V1.25ZM8.61539 2.5H9.69231V3.125H8.61539V2.5ZM10.7692 2.5H11.8462V3.125H10.7692V2.5ZM8.61539 3.75H9.69231V4.375H8.61539V3.75ZM10.7692 3.75H11.8462V4.375H10.7692V3.75ZM8.61539 5H9.69231V5.625H8.61539V5ZM10.7692 5H11.8462V5.625H10.7692V5ZM8.61539 6.25H9.69231V6.875H8.61539V6.25ZM10.7692 6.25H11.8462V6.875H10.7692V6.25ZM12.9231 0H7.53846C7.25284 0 6.97892 0.065848 6.77696 0.183058C6.575 0.300268 6.46154 0.45924 6.46154 0.625V2.5H1.07692C0.791305 2.5 0.517386 2.56585 0.315423 2.68306C0.113461 2.80027 0 2.95924 0 3.125V9.375C0 9.54076 0.113461 9.69973 0.315423 9.81694C0.517386 9.93415 0.791305 10 1.07692 10H12.9231C13.2087 10 13.4826 9.93415 13.6846 9.81694C13.8865 9.69973 14 9.54076 14 9.375V0.625C14 0.45924 13.8865 0.300268 13.6846 0.183058C13.4826 0.065848 13.2087 0 12.9231 0ZM4.30769 9.375H3.23077V8.125H4.30769V9.375ZM5.38462 9.375V7.5H2.15385V9.375H1.07692V3.125H6.46154V9.375H5.38462ZM10.7692 9.375H9.69231V8.125H10.7692V9.375ZM12.9231 9.375H11.8462V7.5H8.61539V9.375H7.53846V0.625H12.9231V9.375ZM2.15385 3.75H3.23077V4.375H2.15385V3.75ZM4.30769 3.75H5.38462V4.375H4.30769V3.75ZM2.15385 5H3.23077V5.625H2.15385V5ZM4.30769 5H5.38462V5.625H4.30769V5ZM2.15385 6.25H3.23077V6.875H2.15385V6.25ZM4.30769 6.25H5.38462V6.875H4.30769V6.25Z" fill="#222B59" fill-opacity="0.63"/>
</svg>
