<svg width="14" height="10" viewBox="0 0 14 10" fill="none" xmlns="http://www.w3.org/2000/svg">
<g clip-path="url(#clip0_111_533)">
<path d="M12.6063 1.02944H11.4024V0.681205C11.4024 0.305589 11.0344 0 10.5821 0C10.1297 0 9.76174 0.305589 9.76174 0.681205V1.02944H4.30391V0.681205C4.30391 0.305589 3.93592 0 3.4836 0C3.03128 0 2.66329 0.305589 2.66329 0.681205V1.02944H1.39371C0.625216 1.02944 0 1.54852 0 2.18658V8.72024C0 9.4259 0.691443 10 1.54137 10H10.8555H10.9576H12.4586C13.3086 10 14 9.4259 14 8.72024V2.18658C14 1.54852 13.3748 1.02944 12.6063 1.02944ZM10.3086 0.681205C10.3086 0.556 10.4313 0.454137 10.5821 0.454137C10.7328 0.454137 10.8555 0.556 10.8555 0.681205V1.83167C10.8555 1.95688 10.7328 2.05874 10.5821 2.05874C10.4313 2.05874 10.3086 1.95688 10.3086 1.83167V0.681205ZM3.21016 0.681205C3.21016 0.556 3.33283 0.454137 3.4836 0.454137C3.63437 0.454137 3.75704 0.556 3.75704 0.681205V1.83167C3.75704 1.95688 3.63437 2.05874 3.4836 2.05874C3.33283 2.05874 3.21016 1.95688 3.21016 1.83167V0.681205ZM1.39371 1.48357H2.66329V1.83167C2.66329 2.20729 3.03128 2.51287 3.4836 2.51287C3.93592 2.51287 4.30391 2.20729 4.30391 1.83167V1.48357H9.76174V1.83167C9.76174 2.20729 10.1297 2.51287 10.5821 2.51287C11.0344 2.51287 11.4024 2.20729 11.4024 1.83167V1.48357H12.6063C13.0733 1.48357 13.4532 1.79895 13.4532 2.18658V2.80959H0.546876V2.18658C0.546876 1.79893 0.926764 1.48357 1.39371 1.48357ZM10.8555 9.54586H1.54137C0.99299 9.54586 0.546876 9.17547 0.546876 8.72024V3.2637H13.4532V7.60581C13.4532 7.9013 13.1637 8.1417 12.8078 8.1417H11.8763C11.7253 8.1417 11.6029 8.24338 11.6029 8.36876V9.00998C11.6029 9.30549 11.3134 9.54589 10.9576 9.54589H10.8555V9.54586ZM12.4587 9.54586H11.9592C12.0796 9.39128 12.1498 9.20735 12.1498 9.00996V8.59581H12.8078C13.0455 8.59581 13.267 8.53752 13.4532 8.43759V8.72024C13.4532 9.17549 13.007 9.54586 12.4587 9.54586Z" fill="#222B59" fill-opacity="0.63"/>
<path d="M2.62402 4.20676H1.43848C1.28748 4.20676 1.16504 4.30123 1.16504 4.41773V5.33241C1.16504 5.44891 1.28748 5.54338 1.43848 5.54338H2.62402C2.77501 5.54338 2.89746 5.44891 2.89746 5.33241V4.41773C2.89746 4.30123 2.77501 4.20676 2.62402 4.20676ZM2.35058 5.12146H1.71191V4.6287H2.35058V5.12146ZM5.12491 4.20676H3.93936C3.78837 4.20676 3.66593 4.30123 3.66593 4.41773V5.33241C3.66593 5.44891 3.78837 5.54338 3.93936 5.54338H5.12491C5.2759 5.54338 5.39834 5.44891 5.39834 5.33241V4.41773C5.39834 4.30123 5.2759 4.20676 5.12491 4.20676ZM4.85147 5.12146H4.2128V4.6287H4.85147V5.12146ZM7.62579 4.20676H6.44025C6.28926 4.20676 6.16681 4.30123 6.16681 4.41773V5.33241C6.16681 5.44891 6.28926 5.54338 6.44025 5.54338H7.62579C7.77678 5.54338 7.89923 5.44891 7.89923 5.33241V4.41773C7.89923 4.30123 7.77678 4.20676 7.62579 4.20676ZM7.35236 5.12146H6.71369V4.6287H7.35236V5.12146ZM10.1267 4.20676H8.94114C8.79014 4.20676 8.6677 4.30123 8.6677 4.41773V5.33241C8.6677 5.44891 8.79014 5.54338 8.94114 5.54338H10.1267C10.2776 5.54338 10.4001 5.44891 10.4001 5.33241V4.41773C10.4001 4.30123 10.2776 4.20676 10.1267 4.20676ZM9.85321 5.12146H9.21457V4.6287H9.85321V5.12146ZM11.442 5.5434H12.6275C12.7785 5.5434 12.901 5.44893 12.901 5.33243V4.41773C12.901 4.30123 12.7785 4.20676 12.6275 4.20676H11.442C11.291 4.20676 11.1686 4.30123 11.1686 4.41773V5.33241C11.1686 5.44893 11.291 5.5434 11.442 5.5434ZM11.7154 4.6287H12.3541V5.12144H11.7155V4.6287H11.7154ZM2.62402 6.01878H1.43848C1.28748 6.01878 1.16504 6.11325 1.16504 6.22975V7.14446C1.16504 7.26096 1.28748 7.35543 1.43848 7.35543H2.62402C2.77501 7.35543 2.89746 7.26096 2.89746 7.14446V6.22975C2.89746 6.11325 2.77501 6.01878 2.62402 6.01878ZM2.35058 6.93349H1.71191V6.44072H2.35058V6.93349ZM5.12491 6.01878H3.93936C3.78837 6.01878 3.66593 6.11325 3.66593 6.22975V7.14446C3.66593 7.26096 3.78837 7.35543 3.93936 7.35543H5.12491C5.2759 7.35543 5.39834 7.26096 5.39834 7.14446V6.22975C5.39834 6.11325 5.2759 6.01878 5.12491 6.01878ZM4.85147 6.93349H4.2128V6.44072H4.85147V6.93349ZM7.62579 6.01878H6.44025C6.28926 6.01878 6.16681 6.11325 6.16681 6.22975V7.14446C6.16681 7.26096 6.28926 7.35543 6.44025 7.35543H7.62579C7.77678 7.35543 7.89923 7.26096 7.89923 7.14446V6.22975C7.89923 6.11325 7.77678 6.01878 7.62579 6.01878ZM7.35236 6.93349H6.71369V6.44072H7.35236V6.93349ZM10.1267 6.01878H8.94114C8.79014 6.01878 8.6677 6.11325 8.6677 6.22975V7.14446C8.6677 7.26096 8.79014 7.35543 8.94114 7.35543H10.1267C10.2776 7.35543 10.4001 7.26096 10.4001 7.14446V6.22975C10.4001 6.11325 10.2776 6.01878 10.1267 6.01878ZM9.85321 6.93349H9.21457V6.44072H9.85321V6.93349ZM11.442 7.35543H12.6275C12.7785 7.35543 12.901 7.26096 12.901 7.14446V6.22975C12.901 6.11325 12.7785 6.01878 12.6275 6.01878H11.442C11.291 6.01878 11.1686 6.11325 11.1686 6.22975V7.14446C11.1686 7.26098 11.291 7.35543 11.442 7.35543ZM11.7154 6.44072H12.3541V6.93349H11.7155V6.44072H11.7154ZM2.62402 7.83083H1.43848C1.28748 7.83083 1.16504 7.9253 1.16504 8.0418V8.9565C1.16504 9.073 1.28748 9.16747 1.43848 9.16747H2.62402C2.77501 9.16747 2.89746 9.073 2.89746 8.9565V8.0418C2.89746 7.92528 2.77501 7.83083 2.62402 7.83083ZM2.35058 8.74553H1.71191V8.25277H2.35058V8.74553ZM5.12491 7.83083H3.93936C3.78837 7.83083 3.66593 7.9253 3.66593 8.0418V8.9565C3.66593 9.073 3.78837 9.16747 3.93936 9.16747H5.12491C5.2759 9.16747 5.39834 9.073 5.39834 8.9565V8.0418C5.39834 7.92528 5.2759 7.83083 5.12491 7.83083ZM4.85147 8.74553H4.2128V8.25277H4.85147V8.74553ZM7.62579 7.83083H6.44025C6.28926 7.83083 6.16681 7.9253 6.16681 8.0418V8.9565C6.16681 9.073 6.28926 9.16747 6.44025 9.16747H7.62579C7.77678 9.16747 7.89923 9.073 7.89923 8.9565V8.0418C7.89923 7.92528 7.77678 7.83083 7.62579 7.83083ZM7.35236 8.74553H6.71369V8.25277H7.35236V8.74553ZM10.1267 7.83083H8.94114C8.79014 7.83083 8.6677 7.9253 8.6677 8.0418V8.9565C8.6677 9.073 8.79014 9.16747 8.94114 9.16747H10.1267C10.2776 9.16747 10.4001 9.073 10.4001 8.9565V8.0418C10.4001 7.92528 10.2776 7.83083 10.1267 7.83083ZM9.85321 8.74553H9.21457V8.25277H9.85321V8.74553Z" fill="#222B59" fill-opacity="0.63"/>
</g>
<defs>
<clipPath id="clip0_111_533">
<rect width="14" height="10" fill="white"/>
</clipPath>
</defs>
</svg>
