<svg width="15" height="15" viewBox="0 0 15 15" fill="none" xmlns="http://www.w3.org/2000/svg">
<g clip-path="url(#clip0_60_597)">
<path d="M13.5068 1.54416H12.2168V1.02181C12.2168 0.458383 11.8225 0 11.3379 0C10.8533 0 10.459 0.458383 10.459 1.02181V1.54416H4.61134V1.02181C4.61134 0.458383 4.21706 0 3.73243 0C3.2478 0 2.85352 0.458383 2.85352 1.02181V1.54416H1.49326C0.669874 1.54416 0 2.32277 0 3.27987V13.0804C0 14.1389 0.740831 15 1.65147 15H11.6309H11.7402H13.3485C14.2592 15 15 14.1389 15 13.0804V3.27987C15 2.32277 14.3302 1.54416 13.5068 1.54416ZM11.0449 1.02181C11.0449 0.833999 11.1764 0.681205 11.3379 0.681205C11.4995 0.681205 11.6309 0.833999 11.6309 1.02181V2.7475C11.6309 2.93531 11.4995 3.08811 11.3379 3.08811C11.1764 3.08811 11.0449 2.93531 11.0449 2.7475V1.02181ZM3.43946 1.02181C3.43946 0.833999 3.57089 0.681205 3.73243 0.681205C3.89397 0.681205 4.0254 0.833999 4.0254 1.02181V2.7475C4.0254 2.93531 3.89397 3.08811 3.73243 3.08811C3.57089 3.08811 3.43946 2.93531 3.43946 2.7475V1.02181ZM1.49326 2.22536H2.85352V2.7475C2.85352 3.31093 3.2478 3.76931 3.73243 3.76931C4.21706 3.76931 4.61134 3.31093 4.61134 2.7475V2.22536H10.459V2.7475C10.459 3.31093 10.8533 3.76931 11.3379 3.76931C11.8225 3.76931 12.2168 3.31093 12.2168 2.7475V2.22536H13.5068C14.0071 2.22536 14.4141 2.69842 14.4141 3.27987V4.21438H0.585939V3.27987C0.585939 2.69839 0.992961 2.22536 1.49326 2.22536ZM11.6309 14.3188H1.65147C1.06392 14.3188 0.585939 13.7632 0.585939 13.0804V4.89555H14.4141V11.4087C14.4141 11.8519 14.1039 12.2125 13.7227 12.2125H12.7246C12.5628 12.2125 12.4317 12.3651 12.4317 12.5531V13.515C12.4317 13.9582 12.1215 14.3188 11.7402 14.3188H11.6309V14.3188ZM13.3486 14.3188H12.8134C12.9424 14.0869 13.0176 13.811 13.0176 13.5149V12.8937H13.7227C13.9773 12.8937 14.2146 12.8063 14.4141 12.6564V13.0804C14.4141 13.7632 13.9361 14.3188 13.3486 14.3188Z" fill="#8C8C8C"/>
<path d="M2.81124 6.31012H1.54102C1.37924 6.31012 1.24805 6.45183 1.24805 6.62658V7.9986C1.24805 8.17335 1.37924 8.31506 1.54102 8.31506H2.81124C2.97302 8.31506 3.10421 8.17335 3.10421 7.9986V6.62658C3.10421 6.45183 2.97302 6.31012 2.81124 6.31012ZM2.51827 7.68218H1.83398V6.94303H2.51827V7.68218ZM5.49076 6.31012H4.22054C4.05876 6.31012 3.92757 6.45183 3.92757 6.62658V7.9986C3.92757 8.17335 4.05876 8.31506 4.22054 8.31506H5.49076C5.65254 8.31506 5.78373 8.17335 5.78373 7.9986V6.62658C5.78373 6.45183 5.65254 6.31012 5.49076 6.31012ZM5.19779 7.68218H4.51351V6.94303H5.19779V7.68218ZM8.17028 6.31012H6.90006C6.73828 6.31012 6.60709 6.45183 6.60709 6.62658V7.9986C6.60709 8.17335 6.73828 8.31506 6.90006 8.31506H8.17028C8.33206 8.31506 8.46325 8.17335 8.46325 7.9986V6.62658C8.46325 6.45183 8.33206 6.31012 8.17028 6.31012ZM7.87731 7.68218H7.19303V6.94303H7.87731V7.68218ZM10.8498 6.31012H9.57958C9.4178 6.31012 9.28661 6.45183 9.28661 6.62658V7.9986C9.28661 8.17335 9.4178 8.31506 9.57958 8.31506H10.8498C11.0116 8.31506 11.1427 8.17335 11.1427 7.9986V6.62658C11.1427 6.45183 11.0116 6.31012 10.8498 6.31012ZM10.5568 7.68218H9.87255V6.94303H10.5568V7.68218ZM12.2591 8.31509H13.5293C13.6911 8.31509 13.8223 8.17338 13.8223 7.99863V6.62658C13.8223 6.45183 13.6911 6.31012 13.5293 6.31012H12.2591C12.0973 6.31012 11.9661 6.45183 11.9661 6.62658V7.9986C11.9661 8.17338 12.0973 8.31509 12.2591 8.31509ZM12.552 6.94303H13.2363V7.68215H12.5521V6.94303H12.552ZM2.81124 9.02816H1.54102C1.37924 9.02816 1.24805 9.16987 1.24805 9.34461V10.7167C1.24805 10.8914 1.37924 11.0331 1.54102 11.0331H2.81124C2.97302 11.0331 3.10421 10.8914 3.10421 10.7167V9.34461C3.10421 9.16987 2.97302 9.02816 2.81124 9.02816ZM2.51827 10.4002H1.83398V9.66107H2.51827V10.4002ZM5.49076 9.02816H4.22054C4.05876 9.02816 3.92757 9.16987 3.92757 9.34461V10.7167C3.92757 10.8914 4.05876 11.0331 4.22054 11.0331H5.49076C5.65254 11.0331 5.78373 10.8914 5.78373 10.7167V9.34461C5.78373 9.16987 5.65254 9.02816 5.49076 9.02816ZM5.19779 10.4002H4.51351V9.66107H5.19779V10.4002ZM8.17028 9.02816H6.90006C6.73828 9.02816 6.60709 9.16987 6.60709 9.34461V10.7167C6.60709 10.8914 6.73828 11.0331 6.90006 11.0331H8.17028C8.33206 11.0331 8.46325 10.8914 8.46325 10.7167V9.34461C8.46325 9.16987 8.33206 9.02816 8.17028 9.02816ZM7.87731 10.4002H7.19303V9.66107H7.87731V10.4002ZM10.8498 9.02816H9.57958C9.4178 9.02816 9.28661 9.16987 9.28661 9.34461V10.7167C9.28661 10.8914 9.4178 11.0331 9.57958 11.0331H10.8498C11.0116 11.0331 11.1427 10.8914 11.1427 10.7167V9.34461C11.1427 9.16987 11.0116 9.02816 10.8498 9.02816ZM10.5568 10.4002H9.87255V9.66107H10.5568V10.4002ZM12.2591 11.0331H13.5293C13.6911 11.0331 13.8223 10.8914 13.8223 10.7167V9.34461C13.8223 9.16987 13.6911 9.02816 13.5293 9.02816H12.2591C12.0973 9.02816 11.9661 9.16987 11.9661 9.34461V10.7167C11.9661 10.8914 12.0973 11.0331 12.2591 11.0331ZM12.552 9.66107H13.2363V10.4002H12.5521V9.66107H12.552ZM2.81124 11.7462H1.54102C1.37924 11.7462 1.24805 11.8879 1.24805 12.0627V13.4347C1.24805 13.6095 1.37924 13.7512 1.54102 13.7512H2.81124C2.97302 13.7512 3.10421 13.6095 3.10421 13.4347V12.0627C3.10421 11.8879 2.97302 11.7462 2.81124 11.7462ZM2.51827 13.1183H1.83398V12.3791H2.51827V13.1183ZM5.49076 11.7462H4.22054C4.05876 11.7462 3.92757 11.8879 3.92757 12.0627V13.4347C3.92757 13.6095 4.05876 13.7512 4.22054 13.7512H5.49076C5.65254 13.7512 5.78373 13.6095 5.78373 13.4347V12.0627C5.78373 11.8879 5.65254 11.7462 5.49076 11.7462ZM5.19779 13.1183H4.51351V12.3791H5.19779V13.1183ZM8.17028 11.7462H6.90006C6.73828 11.7462 6.60709 11.8879 6.60709 12.0627V13.4347C6.60709 13.6095 6.73828 13.7512 6.90006 13.7512H8.17028C8.33206 13.7512 8.46325 13.6095 8.46325 13.4347V12.0627C8.46325 11.8879 8.33206 11.7462 8.17028 11.7462ZM7.87731 13.1183H7.19303V12.3791H7.87731V13.1183ZM10.8498 11.7462H9.57958C9.4178 11.7462 9.28661 11.8879 9.28661 12.0627V13.4347C9.28661 13.6095 9.4178 13.7512 9.57958 13.7512H10.8498C11.0116 13.7512 11.1427 13.6095 11.1427 13.4347V12.0627C11.1427 11.8879 11.0116 11.7462 10.8498 11.7462ZM10.5568 13.1183H9.87255V12.3791H10.5568V13.1183Z" fill="#8C8C8C"/>
</g>
<defs>
<clipPath id="clip0_60_597">
<rect width="15" height="15" fill="white"/>
</clipPath>
</defs>
</svg>
