<svg width="15" height="15" viewBox="0 0 15 15" fill="none" xmlns="http://www.w3.org/2000/svg">
<path d="M6.30446 15C6.19675 15 6.09147 14.9682 6.00192 14.9087C5.91237 14.8491 5.84257 14.7645 5.80136 14.6656C5.76014 14.5666 5.74936 14.4577 5.77036 14.3526C5.79137 14.2475 5.84323 14.151 5.91938 14.0753L12.8613 7.1708C13.1942 6.83963 13.4583 6.44648 13.6385 6.01379C13.8187 5.5811 13.9115 5.11735 13.9115 4.64901C13.9115 4.18067 13.8187 3.71692 13.6385 3.28423C13.4583 2.85154 13.1942 2.45838 12.8613 2.12722C12.5283 1.79605 12.133 1.53336 11.698 1.35413C11.2629 1.17491 10.7967 1.08266 10.3258 1.08266C9.85491 1.08266 9.38865 1.17491 8.95361 1.35413C8.51858 1.53336 8.12329 1.79605 7.79033 2.12722L1.76678 8.1183C1.5537 8.33027 1.38468 8.5819 1.26938 8.85884C1.15407 9.13578 1.09474 9.43259 1.09476 9.73233C1.09479 10.0321 1.15417 10.3289 1.26952 10.6058C1.38487 10.8827 1.55393 11.1343 1.76705 11.3462C1.98017 11.5582 2.23317 11.7263 2.5116 11.841C2.79004 11.9557 3.08846 12.0147 3.38983 12.0146C3.6912 12.0146 3.98961 11.9556 4.26802 11.8408C4.54644 11.7261 4.79941 11.5579 5.01249 11.346L11.0355 5.35544C11.1287 5.2627 11.2027 5.15261 11.2532 5.03145C11.3036 4.91029 11.3296 4.78043 11.3296 4.64928C11.3296 4.51814 11.3036 4.38827 11.2532 4.26711C11.2027 4.14595 11.1287 4.03586 11.0355 3.94312C10.9423 3.85039 10.8316 3.77683 10.7098 3.72664C10.5879 3.67646 10.4574 3.65063 10.3255 3.65063C10.1937 3.65063 10.0631 3.67646 9.94128 3.72664C9.81946 3.77683 9.70877 3.85039 9.61554 3.94312L4.50486 9.02571C4.45461 9.07745 4.39451 9.11872 4.32806 9.14712C4.26161 9.17551 4.19013 9.19045 4.11781 9.19108C4.04549 9.1917 3.97377 9.178 3.90683 9.15076C3.83989 9.12352 3.77908 9.08329 3.72794 9.03243C3.6768 8.98156 3.63635 8.92108 3.60897 8.8545C3.58158 8.78792 3.5678 8.71658 3.56843 8.64465C3.56905 8.57272 3.58408 8.50163 3.61263 8.43554C3.64117 8.36945 3.68267 8.30967 3.73469 8.25969L8.84537 3.17711C9.03974 2.98378 9.2705 2.83042 9.52447 2.72579C9.77843 2.62116 10.0506 2.56731 10.3255 2.56731C10.6004 2.56731 10.8726 2.62116 11.1266 2.72579C11.3805 2.83042 11.6113 2.98378 11.8057 3.17711C12 3.37044 12.1542 3.59995 12.2594 3.85255C12.3646 4.10514 12.4188 4.37587 12.4188 4.64928C12.4188 4.92269 12.3646 5.19342 12.2594 5.44601C12.1542 5.69861 12 5.92812 11.8057 6.12145L5.78048 12.112C5.46642 12.4253 5.09335 12.6739 4.68259 12.8437C4.27184 13.0134 3.83146 13.101 3.38666 13.1013C2.94185 13.1017 2.50134 13.0148 2.09032 12.8457C1.67931 12.6765 1.30585 12.4285 0.991305 12.1156C0.676762 11.8028 0.427308 11.4314 0.257211 11.0226C0.0871135 10.6139 -0.000289605 10.1757 7.20908e-07 9.73332C0.000291047 9.29091 0.0882691 8.8529 0.258903 8.44434C0.429536 8.03578 0.679478 7.66469 0.994431 7.35228L7.02016 1.36174C7.8968 0.489833 9.08577 0 10.3255 0C11.5653 0 12.7542 0.489833 13.6309 1.36174C14.5075 2.23365 15 3.41621 15 4.64928C15 5.88235 14.5075 7.06491 13.6309 7.93682L6.68955 14.8413C6.58742 14.9429 6.44891 15 6.30446 15Z" fill="#8C8C8C"/>
</svg>
